<svg xmlns="http://www.w3.org/2000/svg" viewBox="0 0 1037.94 772.29">
<style type="text/css">
	.st0{opacity:0.1;fill:#64748B;}
	.st1{fill:#64748B;}
	.st2{fill:#DDE1EC;}
	.st3{fill:#535461;}
	.st4{opacity:0.1;}
	.st5{fill:#F8BDC5;}
	.st6{fill:#334155;}
	.st8{fill:#5D3E53;}
	.st9{fill:#85555C;}
	.st10{opacity:0.05;}
</style>
<path class="st0" d="M104.4,77.33c-6.46,2.68-13.09,6.12-16.64,12.15c-3.76,6.37-3.31,14.28-2.61,21.65
	c6.1,63.92,22.17,131.9-5.58,189.8c-13.47,28.09-36,50.6-53.92,76.11C7.73,402.55-5.8,434.4,2.52,464.41
	c10.16,36.67,48.08,57,73.64,85.22c16.73,18.45,28.46,40.87,44.07,60.28s37,36.51,61.92,37.65c35.84,1.65,65-29.3,100.14-36.47
	c36-7.34,72.25,11.34,101.44,33.7s55.74,49.45,89.75,63.41c37.56,15.43,79.9,13.07,119.44,22.34c36,8.45,69.14,26.42,104.88,36
	s77.63,9,105.32-15.47c36.09-32,33.25-89,56.3-131.33c21.41-39.33,63.32-62.81,91.53-97.58c50.76-62.58,49.1-158.23,6-226.29
	s-121.17-109.27-201-120c-36-4.83-73.07-4.17-107.68-15.16C555.63,131.31,500.5,25.97,405.92,4.05
	C345.8-9.86,287.33,14.23,236.12,43.88C191.67,69.62,150.66,58.14,104.4,77.33z"/>
<circle class="st1" cx="521.94" cy="384.41" r="356"/>
<circle class="st2" cx="521.94" cy="384.41" r="283"/>
<g class="st3">
	<rect x="538.94" y="374.41" width="226" height="20">
		<animateTransform attributeName="transform" type="rotate" values="0 521.94 384.41 ; -10 521.94 384.41 ; 0 521.94 384.41" dur="2s" repeatDur="indefinite"/>
	</rect>
	<circle cx="521.94" cy="384.41" r="30"/>
	<polygon points="384.36,293.97 521.94,376.22 511.8,394.41 374.21,312.16 ">
		<animateTransform begin="-0.5s" attributeName="transform" type="rotate" values="0 521.94 384.41 ; -10 521.94 384.41 ; 0 521.94 384.41" dur="2s" repeatDur="indefinite"/>
	</polygon>
</g>
<path class="st4" d="M260.92,418.41c0-156.3,126.7-283,283-283c88.94-0.08,172.74,41.73,226.16,112.84
	c-48.16-87.52-141.16-146.84-248.16-146.84c-156.3,0-283,126.7-283,283c-0.09,61.4,19.88,121.15,56.87,170.16
	C272.85,512.86,260.85,466.01,260.92,418.41z"/>
<path class="st5" d="M666.03,471.45c0,0-2.11,4.23-5,9.31c-1.13,2-2.39,4.15-3.68,6.22c-4.57,7.31,0,30.6,0,30.6l-10,1.37l-10-5
	l-1.83-16.9v-12.36l11.4-12.75l5-5.52L666.03,471.45z"/>
<path class="st6" d="M714.92,386.03c0,0-24.21,51.61-23.29,56.18s-14.16,41.11-14.16,41.11c-3.44,1.62-9.76-0.71-15.72-3.8
	c-4.49-2.4-8.84-5.07-13-8l-0.88-0.62l-0.53-0.38l39.74-110.08l-35.16-25.79l-2.6-1.91l-15.72-11.6l48,8.68c0,0,1.67-0.21,10.5,4.73
	c4.24,2.37,10.13,5.92,18.27,11.26C735.46,362.28,714.92,386.03,714.92,386.03z"/>
<path class="st8" d="M641.37,480.58c0,0-11.88-1.83-7.76,17.36c0,0,0.18,22.5,1.83,26s20.1,8.22,23.29,4.57s-2.06-16.21-2.06-16.21
	s-13.47,9.82-17.13-0.69S641.37,480.58,641.37,480.58z"/>
<path class="st5" d="M633.14,476.93c-1.3,1.23-2.35,2.7-3.11,4.32c-0.94,1.84-1.54,3.83-1.77,5.88c-0.12,1.56-0.37,3.11-0.63,4.65
	c-1.14,6.51,3.23,25.8,3.23,25.8l-17.36,2.74l-6.39-6.85l-1.37-15.07c1.71-5.17,2.63-10.56,2.74-16c0-3.93,2-7.44,4-10
	c1.36-1.71,2.91-3.25,4.63-4.59C617.11,467.81,636.8,473.73,633.14,476.93z"/>
<path class="st6" d="M689.33,372.33c0,0-11.41,21.47-18.73,39.28c-4.8,11.7-14.72,39.56-21,57.3l-0.92,2.62
	c-2.76,7.85-4.6,13.16-4.6,13.16c-1.22,0.01-2.43-0.17-3.59-0.53c-1.08-0.29-2.29-0.68-3.58-1.16l-1.45-0.55
	c-1.44-0.56-3-1.21-4.49-1.89c-7.26-3.24-15-7.46-17.81-9l-1.06-0.59c5.36-10.74,9.36-22.1,11.91-33.83
	c4.11-19.18,18.27-47,18.27-47l1.83-9.14l-34.26-4.57c-25.81-12.9-13.27-38.33-5.9-49.62c1.26-1.96,2.62-3.85,4.07-5.67l27.41,6
	c0,0,4.32,1.38,13.92,5.63l4.41,2c5.38,2.47,12,5.65,20,9.73C700.74,358.14,689.33,372.33,689.33,372.33z"/>
<path class="st8" d="M630.69,516.21c2.73,4.61,1.22,10.56-3.39,13.29c-2.2,1.31-4.83,1.69-7.31,1.07
	c-5.61-1.39-12.26-3.77-14.26-7.52c-3.65-6.85-1.83-35.17-1.83-35.17l4.8-7.08c0,0-2.51,31.29,3.43,34s18.5,1.27,18.5,1.27
	L630.69,516.21z"/>
<path class="st9" d="M635.55,119c-1.82,0.51-3.48,1.49-4.8,2.85c-1.8,2.1-2,5.1-3.22,7.61c-1.9,4-6,6.45-9.64,9
	s-7.27,6.14-7.29,10.6c0,6.34,7,10.32,9.28,16.21c2.17,5.5,0,11.61-1.21,17.4c-0.5,1.87-0.55,3.84-0.14,5.74
	c0.48,1.41,1.2,2.72,2.14,3.87c4.41,6,9.89,11.32,12.84,18.15c2.24,5.19,2.86,10.92,3.45,16.55c0.85,8.1,1.7,16.35,0.16,24.35
	c-0.15,0.48-0.15,0.99,0,1.47c0.26,0.46,0.68,0.81,1.17,1c11.92,5.79,26.28,0.82,32.08-11.1c0.14-0.3,0.28-0.6,0.41-0.9
	c2-4.53,2.77-10,6.73-12.94c0.46-0.38,1.02-0.63,1.61-0.73c0.93,0.03,1.84,0.33,2.6,0.87c5.14,2.78,11.37,2.86,17.1,1.72
	c3.46-0.69,7-1.92,9.29-4.62c4.51-5.36,2-13.37,2.3-20.36c0.24-5.59,2.39-11.49,0-16.55c-2.7-5.78-10.63-8.68-11.29-15
	c-0.4-3.78,2.06-7.21,3.15-10.85c2.59-8.73-2.79-17.63-7.93-25.14c-1.73-2.8-3.85-5.34-6.29-7.55c-2.31-1.76-4.85-3.17-7.56-4.2
	c-7.53-3.17-15.21-4.77-23-6.93C650.03,117.39,643.16,116.4,635.55,119z"/>
<path class="st5" d="M673.8,249.46h-26.5v-42.94c0.79-4.12,1.25-8.3,1.38-12.5c0-1.41,0-2.85,0-4.3
	c-0.25-5.12-1.31-10.23-4.09-13.35c-7.31-8.22,23.75-6.85,23.75-6.85c0.95,3.77,2.19,7.47,3.7,11.06c2.25,5.6,5.24,10.87,8.9,15.67
	c3.22,4.27,7.34,7.78,12.07,10.27C711.25,215.66,673.8,249.46,673.8,249.46z"/>
<circle class="st5" cx="652.78" cy="164.51" r="24.21"/>
<path class="st5" d="M753.27,206.07c-1.19,6.34-1.95,12.74-2.28,19.18c-0.37,8.23-6.23,38.07-8.37,48.72
	c-0.55,2.77-2.45,5.09-5.06,6.17c-5.94,2.43-16.74,3.79-24-13.32c-4.09-9.41-7.41-19.15-9.93-29.1c-0.89-3.35-1.56-6.75-2-10.18
	l16-8.68c1.51,1.41,2.78,3.05,3.78,4.85c2.21,3.79,4.48,9.87,4,18.44l5,7.31c0,0,12.33-38.37,10-45.22s7.31-8.68,7.31-8.68
	s26.95-21,30.15-17.81S768.34,196.93,753.27,206.07z"/>
<path class="st5" d="M622.18,224.34c-1.25,3.57-2.68,7.08-4.3,10.5c-5.38,11.57-15.92,30-32.24,40.66
	C560.52,291.94,566,258.6,566,258.6s6.15-39.64,7.31-43.39c1.83-5.94,0.91-15.07,0.91-15.07c-9.59-4.57-20.55-33.34-17.36-35.63
	s26,24.21,26,24.21s10.51,5,5,13.25s-3.2,44.76-3.2,44.76l10.57-14.59c2.35-6.09,5.51-11.83,9.39-17.08c2-2.73,3.4-4.38,3.4-4.38
	L622.18,224.34z"/>
<path class="st1" d="M673.8,212.92l-2.28-3.65l10.14-12.13c0,0,20.91,10.25,26.39,8c0,0,13.25,11,13.7,17.36
	c0,0-19.18,6.39-18.73,16s-9.1,30.14-9.1,30.14l-4,16.42c-2.46,9.95-2.8,20.31-1,30.4l3.65,20.33c0,0-28.78-2.28-48-2.74
	s-41.11-7.76-41.11-7.76l11.21-23.59c4.04-8.51,6.02-17.86,5.78-27.28l-1-38.19c0,0-0.91-19.18-16-22.38c0,0,8.22-16.9,21-15.53
	c0,0,18.62-7.77,24.15-2.52s4.17,13.48,4.17,13.48l14.16,32L673.8,212.92z"/>
<path class="st9" d="M635.31,158.61c3.67,0,6.55-3.89,10.22-3.69c1.9,0.1,3.53,1.31,5.1,2.4c5.93,4.11,12.53,7.15,19.51,9
	c2.71,0.72,5.58,1.26,8.3,0.6s5.27-2.8,5.58-5.59c0.08-1.23-0.09-2.46-0.48-3.63c-3.08-10.73-10.05-19.92-19.54-25.79
	c-3.8-2.33-8.44-4.11-12.65-2.65c-3.8,1.31-6.25,4.87-9,7.8c-2.07,2.19-4.43,4.1-7,5.68c-2,1.21-5,2-6.15,4.22
	C627.03,151.14,630.44,158.56,635.31,158.61z"/>
<path class="st10" d="M730.21,249.23c0,0-3.65,8.68-1.83,11.42"/>
<path class="st10" d="M584.5,246.49c0,0,1.83,8.68,0,11.42"/>
</svg>