<?xml version="1.0" encoding="utf-8"?>
<!-- Generator: Adobe Illustrator 26.0.1, SVG Export Plug-In . SVG Version: 6.00 Build 0)  -->
<svg version="1.1" id="Layer_1" xmlns="http://www.w3.org/2000/svg" xmlns:xlink="http://www.w3.org/1999/xlink" x="0px" y="0px"
	 viewBox="0 0 675.67 631.95" style="enable-background:new 0 0 675.67 631.95;" xml:space="preserve">
<style type="text/css">
	.st0{fill:#CBD5E1;}
	.st1{fill:#94A3B8;}
	.st2{fill:#F8FAFC;}
	.st3{fill:#64748B;}
	.st4{opacity:0.2;enable-background:new    ;}
	.st5{fill:#334155;}
	.st6{fill:#FECACA;}
	.st7{fill:#1E293B;}
	.st8{fill:#2F2E41;}
</style>
<g>
	<circle class="st0" cx="279" cy="260.87" r="215"/>
	<path class="st0" d="M189.45,35.44c-19.95,31.37-50.4,52.19-87.95,65.87c-3.12,2.34-7.54,1.7-9.88-1.42c0,0,0,0,0,0l0,0
		c-20.4-27.23-15.79-66.15,11.13-86.96c27.14-20.94,66.12-15.92,87.06,11.22c0.17,0.22,0.33,0.44,0.5,0.66l0.56,0.75
		C193.21,28.68,192.57,33.11,189.45,35.44z"/>
	<path class="st0" d="M367.69,24.81c20.58-27.41,59.49-32.95,86.9-12.37c0.22,0.17,0.44,0.33,0.66,0.5
		c26.92,20.81,31.52,59.73,11.13,86.96l0,0c-2.34,3.12-6.76,3.76-9.88,1.42c0,0,0,0,0,0c-34.86-13.35-63.44-36.44-87.95-65.87
		c-3.12-2.34-3.76-6.76-1.42-9.88L367.69,24.81z"/>
	<path class="st0" d="M358.94,447.13c-2.65,1.49-3.59,4.83-2.11,7.49l31.74,56.72c1.49,2.65,4.84,3.59,7.49,2.1
		c2.64-1.48,3.58-4.82,2.11-7.47l-31.74-56.72C364.94,446.6,361.59,445.66,358.94,447.13z"/>
	<path class="st0" d="M191.57,449.25l-31.74,56.72c-1.48,2.65-0.54,6,2.11,7.49c2.65,1.48,6,0.54,7.49-2.11l31.74-56.72
		c1.48-2.65,0.54-6-2.11-7.49C196.4,445.65,193.05,446.6,191.57,449.25L191.57,449.25L191.57,449.25z"/>
	<circle class="st0" cx="395" cy="508.87" r="17"/>
	<circle class="st0" cx="407" cy="73.87" r="17"/>
	<circle class="st0" cx="278" cy="33.87" r="17"/>
	<circle class="st0" cx="155" cy="71.87" r="17"/>
	<circle class="st0" cx="166" cy="508.87" r="17"/>
</g>
<path class="st1" d="M675.67,526.6c0,0.66-0.53,1.19-1.18,1.19c0,0,0,0-0.01,0H1.19c-0.66,0-1.19-0.53-1.19-1.19
	s0.53-1.19,1.19-1.19h673.29C675.14,525.41,675.67,525.94,675.67,526.6C675.67,526.59,675.67,526.6,675.67,526.6z"/>
<path class="st2" d="M464,260.87c0.04,58.54-27.66,113.63-74.67,148.51c-1.55,1.16-3.13,2.29-4.72,3.39
	c-63.49,44.13-147.73,44.13-211.22,0c-1.59-1.1-3.17-2.23-4.72-3.39c-82.02-60.94-99.1-176.84-38.16-258.86
	c10.79-14.52,23.64-27.37,38.16-38.16c1.55-1.16,3.13-2.29,4.72-3.39c63.49-44.13,147.73-44.13,211.22,0
	c1.59,1.1,3.17,2.23,4.72,3.39C436.34,147.23,464.04,202.33,464,260.87z"/>
<circle class="st3" cx="279" cy="260.87" r="169"/>
<path class="st4" d="M279.44,92.34c-2.56,0-5.11,0.07-7.64,0.18c92.97,8.17,161.72,90.16,153.55,183.14
	c-7.41,84.36-76.11,150.2-160.71,154.03c4.88,0.42,9.81,0.65,14.8,0.65c93.34,0,169-75.66,169-169S372.77,92.34,279.44,92.34
	L279.44,92.34z"/>
<g>
	<path class="st2" d="M279.5,79.87c-3.04,0.01-5.49,2.46-5.5,5.5v24c0,3.04,2.46,5.5,5.5,5.5s5.5-2.46,5.5-5.5v-24
		C284.99,82.33,282.53,79.87,279.5,79.87z"/>
	<path class="st2" d="M389.33,112.36c-1.55-1.16-3.13-2.29-4.72-3.39c-1.94-0.13-3.8,0.78-4.9,2.39l-13.51,19.83
		c-1.71,2.51-1.06,5.93,1.45,7.64s5.93,1.06,7.64-1.45l13.51-19.83C389.84,116.02,390.04,114.06,389.33,112.36z"/>
	<path class="st2" d="M450.71,202.78c-1.14-2.81-4.35-4.16-7.16-3.02c0,0,0,0,0,0l-22.24,9.03c-2.81,1.14-4.17,4.35-3.03,7.17
		c1.14,2.81,4.35,4.17,7.17,3.02l0,0l22.24-9.03C450.5,208.8,451.85,205.59,450.71,202.78z"/>
	<path class="st2" d="M191.8,131.19l-13.51-19.83c-1.1-1.61-2.96-2.52-4.9-2.39c-1.59,1.1-3.17,2.23-4.72,3.39
		c-0.71,1.71-0.51,3.66,0.53,5.19l13.51,19.83c1.71,2.51,5.13,3.16,7.64,1.45C192.86,137.12,193.51,133.7,191.8,131.19z"/>
	<path class="st2" d="M136.69,208.79l-22.24-9.03c-2.81-1.14-6.02,0.21-7.16,3.02s0.21,6.02,3.02,7.16l22.24,9.03
		c2.81,1.14,6.02-0.21,7.17-3.02S139.5,209.93,136.69,208.79L136.69,208.79z"/>
	<path class="st2" d="M279.5,406.87c-3.04,0.01-5.49,2.46-5.5,5.5v24c0,3.04,2.46,5.5,5.5,5.5s5.5-2.46,5.5-5.5v-24
		C284.99,409.33,282.53,406.87,279.5,406.87z"/>
	<path class="st2" d="M388.8,404.19l-13.51-19.83c-1.71-2.51-5.13-3.16-7.64-1.45s-3.16,5.13-1.45,7.64l13.51,19.83
		c1.1,1.61,2.96,2.52,4.9,2.39c1.59-1.1,3.17-2.23,4.72-3.39C390.04,407.67,389.84,405.71,388.8,404.19z"/>
	<path class="st2" d="M447.69,311.79l-22.24-9.03c-2.81-1.14-6.02,0.21-7.16,3.02c-1.14,2.81,0.21,6.02,3.02,7.16l0,0l22.24,9.03
		c2.81,1.14,6.02-0.21,7.17-3.02C451.86,316.14,450.5,312.93,447.69,311.79L447.69,311.79L447.69,311.79z"/>
	<path class="st2" d="M190.35,382.91c-2.51-1.71-5.93-1.06-7.64,1.45l-13.51,19.83c-1.04,1.53-1.24,3.48-0.53,5.19
		c1.55,1.16,3.13,2.29,4.72,3.39c1.94,0.13,3.8-0.78,4.9-2.39l13.51-19.83C193.51,388.04,192.86,384.62,190.35,382.91
		C190.35,382.91,190.35,382.91,190.35,382.91z"/>
	<path class="st2" d="M139.71,305.78c-1.14-2.81-4.35-4.16-7.16-3.02c0,0,0,0,0,0l-22.24,9.03c-2.81,1.14-4.17,4.35-3.02,7.17
		s4.35,4.17,7.17,3.02l22.24-9.03C139.5,311.8,140.85,308.59,139.71,305.78z"/>
</g>
<g>
	<path class="st5" d="M286.63,258.14c1.06,6.26-3.15,12.19-9.41,13.27l-97.6,16.6c-6.26,1.07-12.2-3.15-13.27-9.41
		s3.15-12.2,9.41-13.27l97.6-16.6C279.63,247.67,285.56,251.88,286.63,258.14z"/>
	<path class="st5" d="M389.35,366.27c-2.92,2.94-7.66,2.95-10.61,0.04L273.68,262.07c-2.94-2.92-2.96-7.67-0.04-10.61
		c2.92-2.94,7.67-2.96,10.61-0.04l105.06,104.24C392.25,358.58,392.27,363.33,389.35,366.27z"/>
</g>
<circle class="st0" cx="279" cy="260.87" r="13"/>
<g>
	<polygon class="st6" points="385,611.4 374.42,606.34 388.95,562.13 404.56,569.6 	"/>
	<path class="st6" d="M455.91,604.27c-0.77,0.48-1.54,0.96-2.32,1.43c-1.55,0.95-3.11,1.88-4.67,2.8c-0.78,0.46-1.58,0.92-2.36,1.37
		v0.02l-0.05,0.01l-0.02,0.01l-1.2,0.3l-1.72-4.54l-0.79-2.09l-1.12-2.96l-2.05-5.41l-10.8-28.51l16.79-4.14l0.63,2.57h0.01
		l0.31,1.27l5.87,23.79l1.2,4.86l0.04,0.15l0.72,2.91l0.62,2.52l0.69,2.81L455.91,604.27z"/>
</g>
<path class="st7" d="M556.05,504.15c-1.06,1.71-2.15,3.41-3.25,5.1c-2.04,3.14-4.13,6.23-6.27,9.28c0,0.01-0.01,0.01-0.02,0.02
	c-1.25,1.16-2.63,2.17-4.12,3.01c-0.06,0.05-0.13,0.08-0.19,0.12c-1.09,0.6-2.26,1.07-3.46,1.39c-0.43,0.11-0.88,0.22-1.31,0.33
	c-1.57,0.37-3.12,0.69-4.67,0.97c-2.75,0.49-5.47,0.84-8.17,1.06c-0.22,0.02-0.43,0.04-0.65,0.05c-11.12,0.82-21.94-0.5-33.23-2.65
	c-5.58-1.06-11.27-2.32-17.17-3.64c-1.93-0.44-3.86-0.86-5.82-1.29c-0.15-0.03-0.3-0.07-0.46-0.1c-2.8-0.61-5.64-1.22-8.55-1.82
	c-3.67-0.75-7.45-1.48-11.38-2.18l0.28,5.54c0.23,4.26,1.12,8.46,2.63,12.45c1.68,4.91,3.01,8.79,0.2,16.88l-1.35,3.92
	c1.42,3.94,0.91,8.32-1.38,11.83l-0.27,0.41l11.27,28.52l0.73,1.85h-5.77l-7.1,0.01h-12.03l-17.36-34.84l-0.83-1.66v-0.09
	l1.79-66.94c0.02-0.59,0.07-1.19,0.15-1.78c0.64-5.42,3.43-10.36,7.75-13.7c4.14-3.23,9.39-4.67,14.6-3.99l5.94,0.77l12.14,1.57
	l8.55,1.11l0.17,0.02l25.23,3.26l1.81-7.38l0.33-0.12l10.62-3.89l36.73-13.46l0.09-0.03l2.42-0.89l0.29,0.47
	c0.09,0.14,0.17,0.28,0.25,0.42c2.39,4.28,4.33,8.79,5.8,13.47c2.47,7.64,4.51,15.41,6.1,23.28c0.07,0.34,0.13,0.65,0.19,0.93
	l0.02,0.09c0.02,0.13,0.04,0.22,0.05,0.24C558.2,495.58,557.61,499.88,556.05,504.15z"/>
<path class="st7" d="M557.6,479.48c-0.12-0.5-0.26-1-0.42-1.49c-1.23-3.71-2.67-7.34-4.3-10.89c-1.83-4.04-4.03-8.37-6.65-13.05
	c-1.27-2.27-2.63-4.63-4.09-7.08c-0.73-1.23-1.49-2.48-2.28-3.75c-0.03-0.06-0.06-0.12-0.1-0.17l-0.23-0.37l-36.34,4.86l-13.53,1.81
	l-0.81,6.74l-0.19,1.67c-0.01,0-0.01,0,0,0.01l-0.54,4.55v0.01l-0.72,6.01l-0.06-0.01l-20.08-2.6l-20.7-2.68l-11.12-1.44
	c-5.2-0.68-10.46,0.76-14.6,3.99c-4.31,3.35-7.1,8.28-7.75,13.7c-0.07,0.54-0.12,1.1-0.14,1.65l-10.49,24.85
	c-6.28,14.86-10.27,30.59-11.86,46.64l-7.69,24.59l1.1,0.1l16.3,1.51l4.3,0.4l9.48-13.84c1.08-1.58,2.11-3.2,3.06-4.86
	c1.57-2.72,2.97-5.53,4.19-8.42l20.5-48.79c1.58,0.27,3.15,0.53,4.71,0.78c7.19,1.17,14.08,2.12,20.7,2.85
	c21.5,2.4,40.11,2.59,56.68,0.55c4.65-0.57,9.15-1.31,13.49-2.24c1.59-0.33,3.16-0.69,4.72-1.08c0.37-0.09,0.72-0.17,1.08-0.26
	c6.52-1.68,11.75-6.56,13.87-12.96C558.34,487.15,558.51,483.22,557.6,479.48z"/>
<path class="st7" d="M388.38,604.18l-11.44-5.48l-1.79-0.86l-2.87,7.04l-20.01,4.4c-2.56,0.56-4.18,3.09-3.62,5.66
	c0.33,1.53,1.4,2.79,2.84,3.38l19.55,7.98l6.21-5.59l-1.52,7.5l7.36,3.01l8.07-25.69L388.38,604.18z"/>
<polygon class="st8" points="458.7,593.34 459.43,595.19 458.7,595.19 "/>
<path class="st7" d="M454.72,595.58l-11.99,4.15l-1.88,0.65l2.92,7.02l-11.12,17.21c-1.43,2.2-0.8,5.14,1.41,6.57
	c1.31,0.85,2.96,1,4.4,0.4l19.51-8.09l0.48-8.34l4.19,6.4l7.35-3.05l-12.34-23.93L454.72,595.58z"/>
<g>
	<path class="st6" d="M381.66,356.71c2.53,3.96,7.8,5.12,11.76,2.59c0.42-0.27,0.82-0.58,1.19-0.92l26.68,14.29l-1.43-15.66
		l-25.11-11.17c-3.43-3.26-8.85-3.12-12.1,0.31C379.92,349.02,379.51,353.39,381.66,356.71L381.66,356.71z"/>
	<path class="st6" d="M499.73,527.2c4.05-2.39,5.39-7.61,3-11.66c-0.26-0.43-0.55-0.84-0.87-1.22l15.21-26.16l-15.7,0.89
		l-12.04,24.71c-3.37,3.31-3.42,8.73-0.11,12.11C491.99,528.68,496.33,529.23,499.73,527.2z"/>
</g>
<g>
	<path class="st5" d="M401.1,362.17l10.45-14.43l50.36,23.81l62.67-11.76c11.65-2.19,22.88,5.49,25.06,17.14
		c0.24,1.29,0.37,2.6,0.37,3.92l0,0c0.01,11.85-9.58,21.48-21.43,21.51l-71.82,0.13L401.1,362.17z"/>
	<path class="st5" d="M554.61,490.73c-0.71,0-1.41-0.18-2.04-0.51l-63.27-33.06l-0.73-2.99l-1.38-9.47l0.02-0.09l6.02-27.74
		c-0.11-0.24-0.34-0.63-0.6-1.07c-2.69-4.55-10.86-18.41,4.74-37.48l27.4-31.94l23.51-1.01l0.27,0.34
		c12.77,16.03,16.68,37.38,10.41,56.89l-2.45,44.22l2.63,8.93c1.54,5.25,1.28,10.86-0.72,15.94l0.6,14.46
		c0.1,2.44-1.8,4.49-4.24,4.59C554.72,490.73,554.67,490.73,554.61,490.73L554.61,490.73z"/>
	<path class="st5" d="M505.87,507.96l-14.06-10.95l25.54-49.5l-9.57-63.04c-1.78-11.72,6.28-22.67,18.01-24.45
		c1.3-0.2,2.62-0.27,3.93-0.23l0,0c11.85,0.4,21.13,10.32,20.75,22.17l-2.36,71.78L505.87,507.96z"/>
</g>
<path id="f4e08e8b-ef08-4d70-8ad3-b81af8a71ff9-80" class="st7" d="M509.68,333.1v-23.27c-0.01-17.22,13.94-31.19,31.16-31.2
	c17.22-0.01,31.19,13.94,31.2,31.16l0,0v0.04c5.49,11.45,2.06,16.89,0,23.27c0,2.31-1.88,4.18-4.19,4.19h-53.98
	C511.55,337.29,509.68,335.42,509.68,333.1z"/>
<ellipse transform="matrix(0.1602 -0.9871 0.9871 0.1602 137.2275 786.1741)" class="st6" cx="530.63" cy="312.44" rx="23.34" ry="23.34"/>
<path class="st7" d="M555.06,318.56c-0.21-0.03-0.42-0.08-0.63-0.11c-3.64-0.65-7.28-1.28-10.91-1.94l-0.33-8.23l-4.4,7.37
	c-10.03,3.33-19.41,1.45-28.24-2.71c-2.91-1.38-5.74-2.94-8.46-4.66c1.5-9.22,7.09-17.26,15.2-21.89c0.33-0.19,0.66-0.36,0.99-0.52
	c0.01,0,0.01,0,0.01-0.01c0,0,0,0,0,0c0.57-0.27,1.15-0.52,1.73-0.76c9.25-3.62,19.76-1.58,26.98,5.23
	C554.11,297.14,557.32,308.37,555.06,318.56z"/>
</svg>
