<?xml version="1.0" standalone="no"?>
<!DOCTYPE svg PUBLIC "-//W3C//DTD SVG 20010904//EN"
 "http://www.w3.org/TR/2001/REC-SVG-20010904/DTD/svg10.dtd">
<svg version="1.0" xmlns="http://www.w3.org/2000/svg"
 width="700pt" height="700pt" viewBox="0 0 700 700"
 preserveAspectRatio="xMidYMid meet">
<metadata>
Created by potrace 1.14, written by Peter Selinger 2001-2017
</metadata>
<g transform="translate(0,700) scale(0.1,-0.1)"
fill="#000000" stroke="none">
<path d="M3210 6036 c-419 -54 -781 -187 -1123 -413 -323 -214 -604 -514 -803
-858 -151 -261 -261 -582 -310 -900 -26 -167 -26 -561 -1 -725 63 -405 209
-777 433 -1097 434 -619 1098 -1006 1858 -1084 148 -15 460 -7 606 16 452 69
858 246 1225 533 104 82 350 334 431 442 271 362 431 743 501 1190 25 164 25
557 -1 725 -108 705 -492 1326 -1066 1727 -321 224 -696 373 -1090 434 -143
22 -521 27 -660 10z m70 -1498 c0 -747 3 -1075 11 -1103 22 -79 124 -155 209
-155 85 0 187 76 209 155 8 28 11 357 11 1104 l0 1064 58 -7 c262 -31 580
-143 821 -290 193 -118 413 -311 552 -486 242 -303 400 -681 449 -1070 13
-109 13 -391 0 -500 -41 -327 -158 -645 -338 -915 -347 -521 -891 -858 -1512
-935 -125 -15 -402 -12 -532 6 -378 52 -746 209 -1038 443 -90 72 -250 231
-323 321 -248 307 -408 685 -457 1080 -13 109 -13 391 0 500 18 143 49 279 96
420 208 627 712 1129 1335 1334 141 46 338 90 422 95 l27 1 0 -1062z"/>
</g>
</svg>